<?xml version="1.0" encoding="UTF-8"?>
<svg xmlns="http://www.w3.org/2000/svg" xmlns:xlink="http://www.w3.org/1999/xlink" width="0" height="0">
<symbol id="search" width="" height="" viewBox="0 0 15 15" fill="none">
<path d="M14.8729 14.2555L11.4644 10.847C12.5106 9.65407 13.0878 8.1446 13.0878 6.54316C13.0878 4.79507 12.4069 3.1518 11.171 1.91582C9.935 0.679852 8.29173 -0.000976562 6.54364 -0.000976562C4.79556 -0.000976562 3.15228 0.679852 1.91631 1.91582C0.68034 3.1518 -0.000488281 4.79507 -0.000488281 6.54316C-0.000488281 8.29124 0.68034 9.93452 1.91631 11.1705C3.15228 12.4065 4.79556 13.0873 6.54364 13.0873C8.14509 13.0873 9.65456 12.5101 10.8475 11.4639L14.256 14.8724C14.3412 14.9576 14.4528 15.0003 14.5645 15.0003C14.6761 15.0003 14.7877 14.9576 14.8729 14.8724C15.0433 14.702 15.0433 14.4259 14.8729 14.2555ZM2.53323 10.5536C1.46214 9.48226 0.872063 8.05798 0.872063 6.54316C0.872063 5.02833 1.46214 3.60405 2.53323 2.53274C3.60454 1.46165 5.02882 0.871574 6.54364 0.871574C8.05847 0.871574 9.48275 1.46165 10.5541 2.53274C11.6251 3.60405 12.2152 5.02833 12.2152 6.54316C12.2152 8.05798 11.6251 9.48226 10.5541 10.5536C9.48275 11.6247 8.05847 12.2147 6.54364 12.2147C5.02882 12.2147 3.60454 11.6247 2.53323 10.5536Z" fill="#342C23"/>
</symbol>

<symbol id="arrow" width="20" height="12" viewBox="0 0 20 12" fill="none">
<path d="M10.5488 11.7468L19.7738 1.46972C20.0759 1.133 20.0754 0.587846 19.7723 0.251693C19.4692 -0.0842 18.9782 -0.083332 18.6759 0.253429L9.99996 9.91881L1.32406 0.253081C1.02172 -0.0836359 0.531054 -0.0845039 0.22793 0.251346C0.0759773 0.419856 0 0.640617 0 0.861378C0 1.08157 0.07547 1.30147 0.226368 1.46967L9.45114 11.7468C9.59637 11.909 9.79403 12 9.99996 12C10.2059 12 10.4033 11.9087 10.5488 11.7468Z" fill="#BEA183"/>
</symbol>

<symbol id="slash" width="7" height="16" viewBox="0 0 7 16" fill="none">
<path d="M5.88 0.527999H6.92L1.64 15.6H0.6L5.88 0.527999Z" fill="#342C23"/>
</symbol>

<symbol id="burger" width="46" height="15" viewBox="0 0 46 15" fill="none">
<line y1="0.5" x2="46" y2="0.5" stroke="#342C23"/>
<line y1="7.5" x2="30" y2="7.5" stroke="#342C23"/>
<line y1="14.5" x2="46" y2="14.5" stroke="#342C23"/>
</symbol>

<symbol id="heart" width="" height="" viewBox="0 0 22 16" fill="none">
<path d="M11 15.0012C10.6868 15.0012 10.3848 14.9143 10.1495 14.7563C9.26077 14.1607 8.40392 13.601 7.64793 13.1072L7.64407 13.1046C5.42766 11.657 3.5137 10.4069 2.18201 9.1754C0.693375 7.79867 0 6.49334 0 5.06734C0 3.68187 0.619858 2.40368 1.74527 1.46806C2.88411 0.521387 4.44676 0 6.14587 0C7.4158 0 8.57881 0.307712 9.60251 0.914517C10.1191 1.22081 10.5874 1.59568 11 2.03293C11.4127 1.59568 11.8809 1.22081 12.3977 0.914517C13.4214 0.307712 14.5844 0 15.8543 0C17.5532 0 19.1161 0.521387 20.2549 1.46806C21.3803 2.40368 22 3.68187 22 5.06734C22 6.49334 21.3068 7.79867 19.8182 9.17527C18.4865 10.4069 16.5727 11.6569 14.3566 13.1044C13.5993 13.5989 12.7411 14.1595 11.8503 14.7565C11.6152 14.9143 11.313 15.0012 11 15.0012ZM6.14587 0.987715C4.81099 0.987715 3.5847 1.39602 2.6926 2.13752C1.78723 2.8902 1.28856 3.93066 1.28856 5.06734C1.28856 6.26667 1.87015 7.33929 3.17415 8.54519C4.43451 9.71081 6.30919 10.9352 8.47978 12.353L8.48381 12.3556C9.24265 12.8512 10.1029 13.4131 10.9982 14.0131C11.8988 13.412 12.7604 12.8492 13.5207 12.3527C15.6911 10.935 17.5657 9.71081 18.826 8.54519C20.1299 7.33929 20.7114 6.26667 20.7114 5.06734C20.7114 3.93066 20.2128 2.8902 19.3074 2.13752C18.4155 1.39602 17.189 0.987715 15.8543 0.987715C14.8764 0.987715 13.9786 1.22596 13.1859 1.69576C12.4794 2.11462 11.9873 2.64411 11.6987 3.0146C11.5504 3.20512 11.2892 3.31884 11 3.31884C10.7108 3.31884 10.4496 3.20512 10.3013 3.0146C10.0129 2.64411 9.52077 2.11462 8.81413 1.69576C8.02139 1.22596 7.12358 0.987715 6.14587 0.987715Z" fill="#342C23"/>
</symbol>

<symbol id="bag" width="" height="" viewBox="0 0 13 16" fill="none">
<path d="M12.9976 14.5082L11.856 3.65062C11.832 3.42332 11.6402 3.25073 11.4114 3.25073H9.26568V2.76214C9.26568 1.23915 8.02497 0 6.50006 0C4.97503 0 3.73431 1.23915 3.73431 2.76214V3.25073H1.58865C1.3598 3.25073 1.16797 3.42332 1.14402 3.65062L0.00242711 14.5082C-0.0107513 14.634 0.030159 14.7595 0.114844 14.8536C0.199644 14.9476 0.320427 15.0012 0.447054 15.0012H12.5528C12.6796 15.0012 12.8004 14.9476 12.885 14.8536C12.97 14.7595 13.0107 14.634 12.9976 14.5082ZM4.62838 2.76214C4.62838 1.73152 5.46802 0.892941 6.50006 0.892941C7.53198 0.892941 8.37161 1.73152 8.37161 2.76214V3.25073H4.62838V2.76214ZM0.943478 14.1083L1.99122 4.14367H3.73431V5.1276C3.73431 5.37413 3.93451 5.57407 4.18135 5.57407C4.42818 5.57407 4.62838 5.37413 4.62838 5.1276V4.14367H8.37161V5.1276C8.37161 5.37413 8.57181 5.57407 8.81865 5.57407C9.06548 5.57407 9.26568 5.37413 9.26568 5.1276V4.14367H11.0088L12.0565 14.1083H0.943478Z" fill="#342C23"/>
</symbol>

<symbol id="user" width="" height="" viewBox="0 0 13 16" fill="none">
<path d="M8.69423 6.92561C9.87475 6.26398 10.6621 5.08571 10.6621 3.74481C10.6621 1.6799 8.79509 0 6.50019 0C4.20529 0 2.33828 1.6799 2.33828 3.74481C2.33828 5.08571 3.12563 6.26386 4.30603 6.9255C1.7982 7.73706 0 9.89846 0 12.4309V14.5475C0 14.7981 0.225776 15.0012 0.504212 15.0012H12.4959C12.7744 15.0012 13 14.7981 13 14.5475V12.4309C13 9.89857 11.2019 7.73729 8.69423 6.92561ZM11.9917 14.0939H1.00842V12.4309C1.00842 9.7063 3.47186 7.48974 6.50006 7.48974C9.52813 7.48974 11.9917 9.7063 11.9917 12.4309V14.0939ZM9.65368 3.74481C9.65368 5.30946 8.23911 6.58238 6.50019 6.58238C4.76127 6.58238 3.3467 5.30946 3.3467 3.74481C3.3467 2.18028 4.76127 0.907361 6.50019 0.907361C8.23911 0.907361 9.65368 2.18028 9.65368 3.74481Z" fill="#342C23"/>
</symbol>

</svg>
